<?xml version="1.0" encoding="iso-8859-1"?>
<!-- Generator: Adobe Illustrator 19.0.0, SVG Export Plug-In . SVG Version: 6.00 Build 0)  -->
<svg version="1.1" id="Layer_1" xmlns="http://www.w3.org/2000/svg" xmlns:xlink="http://www.w3.org/1999/xlink" x="0px" y="0px"
	 viewBox="0 0 301.084 301.084" style="enable-background:new 0 0 301.084 301.084;" xml:space="preserve">
<g>
	<g>
		<g>
			<path d="M301.084,218.683V21.189H0v197.494h131.841v52.062h-23.677v9.15h84.755v-9.15h-23.677v-52.062H301.084z M160.093,270.745
				h-19.102v-52.062h19.102V270.745z M9.15,209.533V30.339h282.784v179.194H9.15z"/>
			<rect x="13.992" y="181.281" width="273.099" height="9.15"/>
			<rect x="145.833" y="195.407" width="9.417" height="9.15"/>
			<rect x="126.999" y="195.407" width="9.417" height="9.15"/>
			<rect x="164.668" y="195.407" width="9.417" height="9.15"/>
			<path d="M258.706,44.732H42.377v122.156h216.329V44.732z M249.556,157.738H51.527V53.882h198.029V157.738z"/>
			<path d="M155.117,63.566H65.92v84.487h89.197V63.566z M145.967,138.904H75.07V72.716h70.897V138.904z"/>
			<rect x="169.376" y="63.566" width="47.086" height="9.15"/>
			<rect x="169.376" y="82.401" width="9.417" height="9.15"/>
			<rect x="169.376" y="101.235" width="18.834" height="9.15"/>
			<rect x="192.919" y="101.235" width="42.377" height="9.15"/>
			<rect x="169.376" y="120.069" width="65.92" height="9.15"/>
			<rect x="169.376" y="138.904" width="42.377" height="9.15"/>
			<rect x="216.462" y="138.904" width="18.834" height="9.15"/>
			<polygon points="126.865,110.385 136.416,110.385 136.416,101.235 117.715,101.235 117.715,119.936 126.865,119.936 			"/>
		</g>
	</g>
</g>
<g>
</g>
<g>
</g>
<g>
</g>
<g>
</g>
<g>
</g>
<g>
</g>
<g>
</g>
<g>
</g>
<g>
</g>
<g>
</g>
<g>
</g>
<g>
</g>
<g>
</g>
<g>
</g>
<g>
</g>
</svg>
